<mxfile host="65bd71144e">
    <diagram id="7cXgVcdrDAU-DBWdvrRR" name="PÃ¡gina-1">
        <mxGraphModel dx="1420" dy="461" grid="1" gridSize="10" guides="1" tooltips="1" connect="1" arrows="1" fold="1" page="1" pageScale="1" pageWidth="827" pageHeight="1169" math="0" shadow="0">
            <root>
                <mxCell id="0"/>
                <mxCell id="1" parent="0"/>
                <mxCell id="3" style="edgeStyle=none;html=1;fillColor=#1ba1e2;strokeColor=#006EAF;labelBackgroundColor=none;fontColor=#312b2b;" edge="1" parent="1" source="2">
                    <mxGeometry relative="1" as="geometry">
                        <mxPoint x="340" y="180" as="targetPoint"/>
                    </mxGeometry>
                </mxCell>
                <mxCell id="2" value="inicio" style="ellipse;whiteSpace=wrap;html=1;fillColor=#1ba1e2;fontColor=#312b2b;strokeColor=#006EAF;labelBackgroundColor=none;" vertex="1" parent="1">
                    <mxGeometry x="275" y="10" width="120" height="80" as="geometry"/>
                </mxCell>
                <mxCell id="7" style="edgeStyle=none;html=1;fillColor=#1ba1e2;strokeColor=#006EAF;labelBackgroundColor=none;fontColor=#333333;" edge="1" parent="1" source="4">
                    <mxGeometry relative="1" as="geometry">
                        <mxPoint x="338.75" y="321.25" as="targetPoint"/>
                    </mxGeometry>
                </mxCell>
                <mxCell id="4" value="&lt;div style=&quot;font-family: &amp;quot;Droid Sans Mono&amp;quot;, &amp;quot;monospace&amp;quot;, monospace; font-size: 14px; line-height: 19px;&quot;&gt;&lt;div&gt;1=sumar(x+y)&lt;/div&gt;&lt;div&gt;2=restar(x-y)&lt;/div&gt;&lt;div&gt;3=multiplicacion(x*y)&lt;/div&gt;&lt;div&gt;4=dividir(x/y)&lt;/div&gt;&lt;div&gt;5=potencia(x^y)&lt;/div&gt;&lt;div&gt;6=logaritmo(logx y)&lt;/div&gt;&lt;/div&gt;" style="shape=document;whiteSpace=wrap;html=1;boundedLbl=1;labelBorderColor=none;labelBackgroundColor=none;fillColor=#1ba1e2;fontColor=#312b2b;strokeColor=#006EAF;" vertex="1" parent="1">
                    <mxGeometry x="230" y="110" width="210" height="190" as="geometry"/>
                </mxCell>
                <mxCell id="10" style="edgeStyle=none;html=1;fillColor=#1ba1e2;strokeColor=#006EAF;labelBackgroundColor=none;fontColor=#312b2b;" edge="1" parent="1" source="9">
                    <mxGeometry relative="1" as="geometry">
                        <mxPoint x="560" y="590" as="targetPoint"/>
                        <Array as="points">
                            <mxPoint x="560" y="540"/>
                        </Array>
                    </mxGeometry>
                </mxCell>
                <mxCell id="14" style="edgeStyle=none;html=1;entryX=0.5;entryY=0;entryDx=0;entryDy=0;fillColor=#1ba1e2;strokeColor=#006EAF;labelBackgroundColor=none;fontColor=#312b2b;" edge="1" parent="1" source="9" target="17">
                    <mxGeometry relative="1" as="geometry">
                        <mxPoint x="260" y="600" as="targetPoint"/>
                        <Array as="points">
                            <mxPoint x="190" y="540"/>
                        </Array>
                    </mxGeometry>
                </mxCell>
                <mxCell id="9" value="opc==1" style="rhombus;whiteSpace=wrap;html=1;labelBackgroundColor=none;labelBorderColor=none;fillColor=#1ba1e2;fontColor=#312b2b;strokeColor=#006EAF;" vertex="1" parent="1">
                    <mxGeometry x="295" y="500" width="80" height="80" as="geometry"/>
                </mxCell>
                <mxCell id="12" value="r=x+y" style="rounded=1;whiteSpace=wrap;html=1;labelBackgroundColor=none;labelBorderColor=none;fillColor=#1ba1e2;fontColor=#312b2b;strokeColor=#006EAF;" vertex="1" parent="1">
                    <mxGeometry x="500" y="585" width="120" height="50" as="geometry"/>
                </mxCell>
                <mxCell id="57" style="edgeStyle=none;html=1;fillColor=#1ba1e2;strokeColor=#006EAF;labelBackgroundColor=none;fontColor=#312b2b;" edge="1" parent="1" source="15">
                    <mxGeometry relative="1" as="geometry">
                        <mxPoint x="330" y="1110" as="targetPoint"/>
                    </mxGeometry>
                </mxCell>
                <mxCell id="15" value="r=x-y" style="rounded=1;whiteSpace=wrap;html=1;labelBackgroundColor=none;labelBorderColor=none;fillColor=#1ba1e2;fontColor=#312b2b;strokeColor=#006EAF;" vertex="1" parent="1">
                    <mxGeometry x="270" y="700" width="120" height="50" as="geometry"/>
                </mxCell>
                <mxCell id="18" style="edgeStyle=none;html=1;entryX=0.5;entryY=0;entryDx=0;entryDy=0;fillColor=#1ba1e2;strokeColor=#006EAF;labelBackgroundColor=none;fontColor=#312b2b;" edge="1" parent="1" source="17" target="15">
                    <mxGeometry relative="1" as="geometry">
                        <mxPoint x="270" y="710" as="targetPoint"/>
                        <Array as="points">
                            <mxPoint x="330" y="640"/>
                        </Array>
                    </mxGeometry>
                </mxCell>
                <mxCell id="19" style="edgeStyle=none;html=1;fillColor=#1ba1e2;strokeColor=#006EAF;labelBackgroundColor=none;fontColor=#312b2b;" edge="1" parent="1" source="17">
                    <mxGeometry relative="1" as="geometry">
                        <mxPoint x="80" y="680" as="targetPoint"/>
                        <Array as="points">
                            <mxPoint x="80" y="640"/>
                        </Array>
                    </mxGeometry>
                </mxCell>
                <mxCell id="17" value="&lt;span style=&quot;font-family: Helvetica; font-size: 12px; font-style: normal; font-variant-ligatures: normal; font-variant-caps: normal; font-weight: 400; letter-spacing: normal; orphans: 2; text-align: center; text-indent: 0px; text-transform: none; widows: 2; word-spacing: 0px; -webkit-text-stroke-width: 0px; text-decoration-thickness: initial; text-decoration-style: initial; text-decoration-color: initial; float: none; display: inline !important;&quot;&gt;opc==2&lt;/span&gt;" style="rhombus;whiteSpace=wrap;html=1;labelBackgroundColor=none;labelBorderColor=none;fillColor=#1ba1e2;fontColor=#312b2b;strokeColor=#006EAF;" vertex="1" parent="1">
                    <mxGeometry x="150" y="600" width="80" height="80" as="geometry"/>
                </mxCell>
                <mxCell id="22" style="edgeStyle=none;html=1;fillColor=#1ba1e2;strokeColor=#006EAF;labelBackgroundColor=none;fontColor=#312b2b;" edge="1" parent="1" source="20" target="21">
                    <mxGeometry relative="1" as="geometry">
                        <Array as="points">
                            <mxPoint x="190" y="720"/>
                        </Array>
                    </mxGeometry>
                </mxCell>
                <mxCell id="20" value="opc==3" style="rhombus;whiteSpace=wrap;html=1;labelBackgroundColor=none;labelBorderColor=none;fillColor=#1ba1e2;fontColor=#312b2b;strokeColor=#006EAF;" vertex="1" parent="1">
                    <mxGeometry x="40" y="680" width="80" height="80" as="geometry"/>
                </mxCell>
                <mxCell id="62" style="edgeStyle=none;html=1;fillColor=#1ba1e2;strokeColor=#006EAF;labelBackgroundColor=none;fontColor=#312b2b;" edge="1" parent="1" source="21">
                    <mxGeometry relative="1" as="geometry">
                        <mxPoint x="190" y="1110" as="targetPoint"/>
                    </mxGeometry>
                </mxCell>
                <mxCell id="21" value="r=x*y" style="rounded=1;whiteSpace=wrap;html=1;labelBackgroundColor=none;labelBorderColor=none;fillColor=#1ba1e2;fontColor=#312b2b;strokeColor=#006EAF;" vertex="1" parent="1">
                    <mxGeometry x="130" y="780" width="120" height="50" as="geometry"/>
                </mxCell>
                <mxCell id="26" style="edgeStyle=none;html=1;fillColor=#1ba1e2;strokeColor=#006EAF;labelBackgroundColor=none;fontColor=#312b2b;" edge="1" parent="1">
                    <mxGeometry relative="1" as="geometry">
                        <mxPoint x="-100" y="760" as="targetPoint"/>
                        <mxPoint x="40" y="720" as="sourcePoint"/>
                        <Array as="points">
                            <mxPoint x="-100" y="720"/>
                        </Array>
                    </mxGeometry>
                </mxCell>
                <mxCell id="27" style="edgeStyle=none;html=1;fillColor=#1ba1e2;strokeColor=#006EAF;labelBackgroundColor=none;fontColor=#312b2b;" edge="1" source="28" target="29" parent="1">
                    <mxGeometry relative="1" as="geometry">
                        <Array as="points">
                            <mxPoint x="50" y="800"/>
                        </Array>
                    </mxGeometry>
                </mxCell>
                <mxCell id="45" style="edgeStyle=none;html=1;fillColor=#1ba1e2;strokeColor=#006EAF;labelBackgroundColor=none;fontColor=#312b2b;" edge="1" parent="1" source="28">
                    <mxGeometry relative="1" as="geometry">
                        <mxPoint x="-280" y="830" as="targetPoint"/>
                        <Array as="points">
                            <mxPoint x="-280" y="800"/>
                        </Array>
                    </mxGeometry>
                </mxCell>
                <mxCell id="28" value="opc==4" style="rhombus;whiteSpace=wrap;html=1;labelBackgroundColor=none;labelBorderColor=none;fillColor=#1ba1e2;fontColor=#312b2b;strokeColor=#006EAF;" vertex="1" parent="1">
                    <mxGeometry x="-140" y="760" width="80" height="80" as="geometry"/>
                </mxCell>
                <mxCell id="61" style="edgeStyle=none;html=1;fillColor=#1ba1e2;strokeColor=#006EAF;labelBackgroundColor=none;fontColor=#312b2b;" edge="1" parent="1" source="29">
                    <mxGeometry relative="1" as="geometry">
                        <mxPoint x="50" y="1110" as="targetPoint"/>
                    </mxGeometry>
                </mxCell>
                <mxCell id="29" value="r=x/y" style="rounded=1;whiteSpace=wrap;html=1;labelBackgroundColor=none;labelBorderColor=none;fillColor=#1ba1e2;fontColor=#312b2b;strokeColor=#006EAF;" vertex="1" parent="1">
                    <mxGeometry x="-10" y="850" width="120" height="50" as="geometry"/>
                </mxCell>
                <mxCell id="42" style="edgeStyle=none;html=1;fillColor=#1ba1e2;strokeColor=#006EAF;labelBackgroundColor=none;fontColor=#312b2b;" edge="1" source="43" target="44" parent="1">
                    <mxGeometry relative="1" as="geometry">
                        <Array as="points">
                            <mxPoint x="-170" y="870"/>
                        </Array>
                    </mxGeometry>
                </mxCell>
                <mxCell id="43" value="opc==5" style="rhombus;whiteSpace=wrap;html=1;labelBackgroundColor=none;labelBorderColor=none;fillColor=#1ba1e2;fontColor=#312b2b;strokeColor=#006EAF;" vertex="1" parent="1">
                    <mxGeometry x="-320" y="830" width="80" height="80" as="geometry"/>
                </mxCell>
                <mxCell id="60" style="edgeStyle=none;html=1;fillColor=#1ba1e2;strokeColor=#006EAF;labelBackgroundColor=none;fontColor=#312b2b;" edge="1" parent="1" source="44">
                    <mxGeometry relative="1" as="geometry">
                        <mxPoint x="-170" y="1110" as="targetPoint"/>
                    </mxGeometry>
                </mxCell>
                <mxCell id="44" value="r=x&lt;span style=&quot;font-family: &amp;quot;Droid Sans Mono&amp;quot;, &amp;quot;monospace&amp;quot;, monospace; font-size: 14px;&quot;&gt;^&lt;/span&gt;y" style="rounded=1;whiteSpace=wrap;html=1;labelBackgroundColor=none;labelBorderColor=none;fillColor=#1ba1e2;fontColor=#312b2b;strokeColor=#006EAF;" vertex="1" parent="1">
                    <mxGeometry x="-230" y="910" width="120" height="50" as="geometry"/>
                </mxCell>
                <mxCell id="46" style="edgeStyle=none;html=1;fillColor=#1ba1e2;strokeColor=#006EAF;labelBackgroundColor=none;fontColor=#312b2b;" edge="1" source="47" target="48" parent="1">
                    <mxGeometry relative="1" as="geometry">
                        <Array as="points">
                            <mxPoint x="-350" y="940"/>
                        </Array>
                    </mxGeometry>
                </mxCell>
                <mxCell id="51" style="edgeStyle=none;html=1;fillColor=#1ba1e2;strokeColor=#006EAF;labelBackgroundColor=none;fontColor=#312b2b;" edge="1" parent="1" source="47">
                    <mxGeometry relative="1" as="geometry">
                        <mxPoint x="-620" y="990" as="targetPoint"/>
                        <Array as="points">
                            <mxPoint x="-620" y="940"/>
                        </Array>
                    </mxGeometry>
                </mxCell>
                <mxCell id="47" value="opc==6" style="rhombus;whiteSpace=wrap;html=1;labelBackgroundColor=none;labelBorderColor=none;fillColor=#1ba1e2;fontColor=#312b2b;strokeColor=#006EAF;" vertex="1" parent="1">
                    <mxGeometry x="-500" y="900" width="80" height="80" as="geometry"/>
                </mxCell>
                <mxCell id="59" style="edgeStyle=none;html=1;fillColor=#1ba1e2;strokeColor=#006EAF;labelBackgroundColor=none;fontColor=#312b2b;" edge="1" parent="1" source="48">
                    <mxGeometry relative="1" as="geometry">
                        <mxPoint x="-350" y="1110" as="targetPoint"/>
                    </mxGeometry>
                </mxCell>
                <mxCell id="48" value="r=xlogxy" style="rounded=1;whiteSpace=wrap;html=1;labelBackgroundColor=none;labelBorderColor=none;fillColor=#1ba1e2;fontColor=#312b2b;strokeColor=#006EAF;" vertex="1" parent="1">
                    <mxGeometry x="-410" y="990" width="120" height="50" as="geometry"/>
                </mxCell>
                <mxCell id="50" style="edgeStyle=none;html=1;exitX=0;exitY=0.5;exitDx=0;exitDy=0;entryX=0.5;entryY=0;entryDx=0;entryDy=0;fillColor=#1ba1e2;strokeColor=#006EAF;labelBackgroundColor=none;fontColor=#312b2b;" edge="1" parent="1" source="43" target="47">
                    <mxGeometry relative="1" as="geometry">
                        <mxPoint x="-400" y="890" as="targetPoint"/>
                        <mxPoint x="-330" y="870" as="sourcePoint"/>
                        <Array as="points">
                            <mxPoint x="-460" y="870"/>
                        </Array>
                    </mxGeometry>
                </mxCell>
                <mxCell id="53" value="r=no valido" style="rounded=1;whiteSpace=wrap;html=1;labelBackgroundColor=none;labelBorderColor=none;fillColor=#1ba1e2;fontColor=#312b2b;strokeColor=#006EAF;" vertex="1" parent="1">
                    <mxGeometry x="-680" y="990" width="120" height="60" as="geometry"/>
                </mxCell>
                <mxCell id="55" value="" style="endArrow=none;html=1;exitX=0.5;exitY=1;exitDx=0;exitDy=0;fillColor=#1ba1e2;strokeColor=#006EAF;labelBackgroundColor=none;fontColor=#312b2b;" edge="1" parent="1" source="53">
                    <mxGeometry width="50" height="50" relative="1" as="geometry">
                        <mxPoint x="-632" y="1110" as="sourcePoint"/>
                        <mxPoint x="560" y="635" as="targetPoint"/>
                        <Array as="points">
                            <mxPoint x="-620" y="1110"/>
                            <mxPoint x="-440" y="1110"/>
                            <mxPoint x="560" y="1110"/>
                        </Array>
                    </mxGeometry>
                </mxCell>
                <mxCell id="64" value="" style="endArrow=classic;html=1;fillColor=#1ba1e2;strokeColor=#006EAF;labelBackgroundColor=none;fontColor=#312b2b;" edge="1" parent="1">
                    <mxGeometry width="50" height="50" relative="1" as="geometry">
                        <mxPoint x="-40" y="1110" as="sourcePoint"/>
                        <mxPoint x="-40" y="1180" as="targetPoint"/>
                    </mxGeometry>
                </mxCell>
                <mxCell id="66" style="edgeStyle=none;html=1;fillColor=#1ba1e2;strokeColor=#006EAF;labelBackgroundColor=none;fontColor=#312b2b;" edge="1" parent="1" source="65">
                    <mxGeometry relative="1" as="geometry">
                        <mxPoint x="-35" y="1290" as="targetPoint"/>
                    </mxGeometry>
                </mxCell>
                <mxCell id="65" value="r" style="shape=document;whiteSpace=wrap;html=1;boundedLbl=1;labelBackgroundColor=none;labelBorderColor=none;fillColor=#1ba1e2;fontColor=#312b2b;strokeColor=#006EAF;" vertex="1" parent="1">
                    <mxGeometry x="-80" y="1180" width="90" height="70" as="geometry"/>
                </mxCell>
                <mxCell id="67" value="fin" style="ellipse;whiteSpace=wrap;html=1;labelBackgroundColor=none;labelBorderColor=none;fillColor=#1ba1e2;fontColor=#312b2b;strokeColor=#006EAF;" vertex="1" parent="1">
                    <mxGeometry x="-95" y="1290" width="120" height="80" as="geometry"/>
                </mxCell>
                <mxCell id="72" style="edgeStyle=none;html=1;fillColor=#1ba1e2;strokeColor=#006EAF;fontColor=#333333;" edge="1" parent="1" source="71">
                    <mxGeometry relative="1" as="geometry">
                        <mxPoint x="335" y="420" as="targetPoint"/>
                    </mxGeometry>
                </mxCell>
                <mxCell id="71" value="x,y" style="shape=parallelogram;perimeter=parallelogramPerimeter;whiteSpace=wrap;html=1;fixedSize=1;fillColor=#1ba1e2;fontColor=#333333;strokeColor=#006EAF;" vertex="1" parent="1">
                    <mxGeometry x="275" y="320" width="120" height="60" as="geometry"/>
                </mxCell>
                <mxCell id="74" style="edgeStyle=none;html=1;entryX=0.5;entryY=0;entryDx=0;entryDy=0;fillColor=#1ba1e2;strokeColor=#006EAF;" edge="1" parent="1" source="73" target="9">
                    <mxGeometry relative="1" as="geometry"/>
                </mxCell>
                <mxCell id="73" value="opcion" style="shape=parallelogram;perimeter=parallelogramPerimeter;whiteSpace=wrap;html=1;fixedSize=1;fillColor=#1ba1e2;fontColor=#333333;strokeColor=#006EAF;" vertex="1" parent="1">
                    <mxGeometry x="275" y="400" width="120" height="60" as="geometry"/>
                </mxCell>
            </root>
        </mxGraphModel>
    </diagram>
</mxfile>